<?xml version="1.0" encoding="utf-8"?>
<!-- Generator: Adobe Illustrator 25.2.3, SVG Export Plug-In . SVG Version: 6.00 Build 0)  -->
<svg version="1.1" id="katman_1" xmlns="http://www.w3.org/2000/svg" xmlns:xlink="http://www.w3.org/1999/xlink" x="0px" y="0px"
	 viewBox="0 0 512 512" style="enable-background:new 0 0 512 512;" xml:space="preserve">
<style type="text/css">
	.st0{fill:#FF0000;}
</style>
<g>
	<g>
		<path class="st0" d="M98.4,296.4c-10,0-18.1,8.3-18.1,18.5c0,10.2,8.1,18.5,18.1,18.5c10,0,18.1-8.3,18.1-18.5
			C116.5,304.7,108.4,296.4,98.4,296.4z M150.9,326c-10,0-18.1,8.3-18.1,18.5c0,10.2,8.1,18.5,18.1,18.5c10,0,18.1-8.3,18.1-18.5
			C169,334.3,160.9,326,150.9,326z M256,385.2c-10,0-18.1,8.3-18.1,18.5c0,10.2,8.1,18.5,18.1,18.5c10,0,18.1-8.3,18.1-18.5
			C274.1,393.5,266,385.2,256,385.2z M204.3,355.6c-10,0-18.1,8.3-18.1,18.5c0,10.2,8.1,18.5,18.1,18.5s18.1-8.3,18.1-18.5
			C222.5,363.9,214.4,355.6,204.3,355.6z M309.4,414.8c-10,0-18.1,8.3-18.1,18.5c0,10.2,8.1,18.5,18.1,18.5s18.1-8.3,18.1-18.5
			C327.5,423.1,319.4,414.8,309.4,414.8z M361.5,444.4c-10,0-18.1,8.3-18.1,18.5c0,10.2,8.1,18.5,18.1,18.5c10,0,18.1-8.3,18.1-18.5
			C379.6,452.7,371.5,444.4,361.5,444.4z M89.5,148.6c26.1,0,47.2-26.2,47.2-58.6c0-32.3-6.9-58.6-47.2-58.6
			c-40.3,0-47.2,26.2-47.2,58.6C42.3,122.4,63.4,148.6,89.5,148.6z M0.3,238.1C0.3,236.1,0.3,237.5,0.3,238.1L0.3,238.1z
			 M178.7,239.6C178.7,239.1,178.7,235.9,178.7,239.6L178.7,239.6z M178.6,235.7c-0.9-56.3-8.1-72.4-63.2-82.6
			c0,0-7.8,10.1-25.9,10.1s-25.9-10.1-25.9-10.1C9.1,163.2,1.4,179,0.4,233.9c-0.1,4.5-0.1,4.7-0.1,4.2c0,1,0,2.8,0,5.9
			c0,0,13.1,27,89.2,27s89.2-27,89.2-27c0-2,0-3.4,0-4.4C178.7,239.9,178.6,239.3,178.6,235.7z M506.2,269
			C506.2,269,506.2,269,506.2,269l-92.7-92.6c-4-3.9-9.2-6.1-14.8-6.1c-5.6,0-10.8,2.2-14.8,6.1l-92.7,92.6c0,0-0.1,0.1-0.1,0.1
			c-8.1,8.2-8.1,21.4,0,29.5c3.7,3.7,8.6,5.9,13.9,6.1c0.2,0,0.4,0,0.6,0h3.7v68.2c0,13.5,11,24.5,24.5,24.5h36.3
			c3.7,0,6.7-3,6.7-6.7v-53.4c0-6.2,5-11.2,11.2-11.2h21.4c6.2,0,11.2,5,11.2,11.2v53.4c0,3.7,3,6.7,6.7,6.7h36.3
			c13.5,0,24.5-11,24.5-24.5v-68.2h3.4c5.6,0,10.8-2.2,14.8-6.1C514.3,290.4,514.3,277.2,506.2,269z"/>
	</g>
</g>
</svg>
