<?xml version="1.0" encoding="utf-8"?>
<!-- Generator: Adobe Illustrator 25.4.1, SVG Export Plug-In . SVG Version: 6.00 Build 0)  -->
<svg version="1.1" id="katman_1" xmlns="http://www.w3.org/2000/svg" xmlns:xlink="http://www.w3.org/1999/xlink" x="0px" y="0px"
	 viewBox="0 0 401.1 512" style="enable-background:new 0 0 401.1 512;" xml:space="preserve">
<style type="text/css">
	.st0{fill:url(#SVGID_1_);}
	.st1{fill:#FFFFFF;}
	.st2{fill:#F39200;}
</style>
<g>
	<linearGradient id="SVGID_1_" gradientUnits="userSpaceOnUse" x1="200.5741" y1="512" x2="200.5741" y2="-9.094947e-13">
		<stop  offset="0" style="stop-color:#1267B1"/>
		<stop  offset="1" style="stop-color:#062464"/>
	</linearGradient>
	<path class="st0" d="M60,512h281.1c33.1,0,60-26.9,60-60V60c0-33.1-26.9-60-60-60H60C26.9,0,0,26.9,0,60v392
		C0,485.1,26.9,512,60,512z"/>
	<g>
		<g>
			<path class="st1" d="M93.9,403.3c-1.2-1.4-2.7-2.7-4.5-3.6c-1.7-0.9-3.8-1.6-6.1-2.2l-6.2-1.4c-1.7-0.4-3-0.9-4.1-1.4
				c-1-0.5-1.8-1.1-2.3-1.8c-0.6-0.7-1-1.5-1.2-2.5c-0.3-1.1-0.4-2.4-0.4-3.8c0-1.4,0.2-2.7,0.6-3.9c0.3-1.1,0.9-2.1,1.7-2.9
				c0.8-0.8,1.8-1.5,3.1-2c1.3-0.5,3.1-0.8,5.2-0.8c1.8,0,3.4,0.2,4.6,0.6c1.2,0.4,2.2,1,2.9,1.7c0.8,0.8,1.4,1.7,1.9,2.8
				c0.5,1.2,1,2.6,1.4,4.2l0.4,1.6l6.2-2.3l-0.3-1.2c-0.4-1.8-1-3.5-1.6-5.1c-0.7-1.8-1.7-3.4-3-4.8c-1.3-1.4-3-2.6-5.1-3.4
				c-2-0.8-4.5-1.3-7.4-1.3c-2.3,0-4.5,0.3-6.5,1c-2.1,0.7-3.9,1.7-5.5,3.1c-1.6,1.4-2.8,3.2-3.8,5.3c-0.9,2.1-1.4,4.6-1.4,7.4
				c0,2.8,0.3,5.2,1,7.1c0.7,2,1.6,3.7,2.9,5.1c1.3,1.3,2.8,2.4,4.7,3.2c1.7,0.8,3.7,1.4,6,1.9l5.5,1.2c1.7,0.4,3.2,0.9,4.2,1.6
				c1,0.6,1.8,1.3,2.3,2.1c0.5,0.8,0.9,1.7,1.1,2.8c0.2,1.1,0.3,2.3,0.3,3.5c0,1.5-0.2,2.9-0.5,4.2c-0.3,1.2-0.8,2.3-1.6,3.2
				c-0.7,0.9-1.7,1.6-2.9,2.1c-1.3,0.6-2.9,0.8-4.9,0.8c-3.9,0-6.9-0.8-8.8-2.5c-1.9-1.7-3.2-4.5-3.8-8.4l-0.2-1.2h-6.5l0.1,1.6
				c0.3,3.1,0.9,5.9,2,8.1c1.1,2.3,2.5,4.1,4.2,5.6c1.7,1.4,3.7,2.5,5.9,3.1c2.1,0.6,4.5,0.9,7,0.9c2.8,0,5.2-0.5,7.4-1.4
				c2.1-0.9,3.9-2.2,5.3-3.8c1.4-1.6,2.5-3.5,3.2-5.6c0.7-2.1,1.1-4.3,1.1-6.7c0-2.6-0.3-4.9-0.8-6.8
				C96,406.5,95.1,404.8,93.9,403.3z"/>
			<path class="st1" d="M152.4,411.4c-0.3,2.1-0.7,4.1-1.3,5.9l0,0c-0.5,1.7-1.3,3.2-2.2,4.5c-0.9,1.2-2.1,2.1-3.5,2.8
				c-1.4,0.7-3.2,1-5.4,1c-2.2,0-4.1-0.5-5.8-1.6c-1.7-1.1-3.2-2.8-4.4-4.8c-1.2-2.2-2.2-4.8-2.8-7.7c-0.6-3-1-6.3-1-10
				c0-3.6,0.3-7,1-10c0.7-3,1.6-5.6,2.9-7.7c1.2-2.1,2.7-3.7,4.3-4.9c1.7-1.1,3.5-1.7,5.6-1.7c1.9,0,3.5,0.3,4.7,0.9
				c1.3,0.6,2.4,1.4,3.3,2.6c0.9,1.2,1.7,2.6,2.3,4.3c0.6,1.8,1.2,3.8,1.6,6.1l0.3,1.6l6.4-1.9l-0.3-1.3c-0.5-2.7-1.2-5.2-2-7.5
				c-0.9-2.4-2-4.5-3.5-6.2c-1.5-1.8-3.3-3.2-5.4-4.2c-4.2-2-10.6-2.2-15.6,0.6c-2.5,1.4-4.7,3.5-6.6,6.2c-1.8,2.6-3.3,6-4.4,9.9
				c-1,3.8-1.6,8.3-1.6,13.4c0,4.9,0.5,9.4,1.5,13.2c1,3.9,2.4,7.2,4.2,9.8c1.8,2.7,4,4.8,6.6,6.2c2.6,1.4,5.4,2.1,8.5,2.1
				c2.9,0,5.5-0.6,7.8-1.7c2.2-1.1,4.1-2.6,5.7-4.5c1.5-1.9,2.8-4.1,3.6-6.7c0.9-2.5,1.5-5.2,1.8-8.2l0.2-1.6h-6.6L152.4,411.4z"/>
			<path class="st1" d="M271.8,378.9c-1.8-2.5-4.1-4.4-6.8-5.7c-2.6-1.2-5.6-1.9-8.9-1.9h-16.3v60h14.9c3.4,0,6.6-0.6,9.4-1.9
				c2.8-1.3,5.3-3.2,7.3-5.8c1.9-2.5,3.5-5.7,4.5-9.5c1-3.8,1.5-8.2,1.5-13.1c0-4.9-0.5-9.2-1.4-12.8
				C275,384.4,273.6,381.3,271.8,378.9z M270.5,401.1c0,7.5-1.3,13.3-3.9,17.3c-2.5,3.8-6.3,5.7-11.7,5.7h-8.5v-45.6h9.6
				c5,0,8.5,1.8,10.8,5.5C269.3,388,270.5,393.7,270.5,401.1z"/>
			<path class="st1" d="M198.9,371.4c-2,0-3.6,1.2-4.2,3.1l-17.3,56.8h7l14.4-48.1l14.6,48.1h5.1h2l-17.3-56.8
				C202.5,372.6,200.8,371.4,198.9,371.4z"/>
			<path class="st1" d="M322.5,374.5c-0.6-1.9-2.2-3.1-4.2-3.1c-2,0-3.6,1.2-4.2,3.1l-17.3,56.8h7l14.4-48.1l14.6,48.1h5.1h2
				L322.5,374.5z"/>
		</g>
		<g>
			<g>
				<rect x="61.3" y="245.9" class="st1" width="18.5" height="57.1"/>
				<path class="st1" d="M125.9,92.6H61.3V110h61.3c20.6,0,37.4,21.9,37.4,48.7v2.8c0,26.9-16.8,48.7-37.4,48.7H61.3v17.4h64.6
					c28.8,0,52.3-29.7,52.3-66.1v-2.8C178.2,122.3,154.7,92.6,125.9,92.6z"/>
				<polygon class="st1" points="198.3,92.6 178,92.6 256.5,308.3 267,281.2 				"/>
			</g>
			<polygon class="st2" points="319,92.6 271.4,213.8 271,214.8 281.2,243 339.9,92.6 			"/>
		</g>
	</g>
</g>
</svg>
